<?xml version="1.0" encoding="UTF-8" standalone="no"?>
<svg
   width="2816"
   height="1536"
   viewBox="0 0 2816 1536"
   version="1.1"
   xml:space="preserve"
   id="SVGRoot"
   xmlns:xlink="http://www.w3.org/1999/xlink"
   xmlns="http://www.w3.org/2000/svg"
   xmlns:svg="http://www.w3.org/2000/svg">

   <defs>
      <mask id="afcr-mask">
         <path class="afcr-stroke-anim main-anim"
         style="stroke-width:135.7; --duration: 2000; --time: 1000;"
            d="M 770.45698,771.06798 C 733.77264,675.16156 721.1492,620.00078 649.63169,605.61345 c -3.49834,-0.75095 -6.9049,-1.3465 -10.22327,-1.79317 -94.89966,-12.77386 -117.67227,96.22047 -152.33811,174.55574 -41.37898,93.50513 -60.80583,166.73923 -28.07496,222.80398 30.47027,52.1926 78.44828,72.1778 150.95142,-19.20643 52.50119,-66.17343 141.3274,-205.21149 257.80875,-432.42845"/>
         <path class="afcr-stroke-anim main-anim"
            style="stroke-width:135.7; --duration: 2000; --time: 1500;"
            d="M 868.75858,534.39106
               C 632.81971,1194.6013 817.03063,1110.1501 890.7223,923.56725"/>
         <path class="afcr-stroke-anim main-anim"
            style="stroke-width:49.8; --duration: 2000; --time: 1600;"
            d="m 881.10399,1031.5421
         c 3.97327,-9.9354 66.20224,-101.61514 69.72276,-110.11387 63.57905,-153.4833 59.17105,-84.8551 197.90315,-233.51194"/>
         <path class="afcr-stroke-anim main-anim"
            style="stroke-width:55.2; --duration: 2000; --time: 1700;"
            d="m 1147.104,692.43431 47.553,-55.77304"/>
         <path class="afcr-stroke-anim main-anim"
            style="stroke-width:111.7; --duration: 2000; --time: 1750;"
            d="m 1187.9932,653.857 c 264.8964,-227.67255 96.3429,-681.295861 -135.8183,57.49242 -320.44094,889.80468 2.5948,705.11018 50.4417,368.83028 11.8702,-83.42715 6.8032,-150.72821 -29.2285,-238.72263"/>
         <path class="afcr-stroke-anim main-anim"
            style="stroke-width:111.7; --duration: 2000; --time: 2050;"
            d="M 1019.1332,823.81063 C 1253.9167,715.59886 1451.1606,522.56401 1561.956,599.74787"/>
         <path class="afcr-stroke-anim main-anim"
            style="stroke-width:111.7; --duration: 2000; --time: 2200;"
            d="m 1549.9781,608.11183 c 58.9262,54.03324 42.2264,141.5727 -38.1838,176.77669"/>
         <path class="afcr-stroke-anim main-anim"
            style="stroke-width:131.1; --duration: 2000; --time: 2300;"
            d="m 1518.8654,596.79812 c -575.69029,369.74637 52.2479,725.81008 254.5584,137.17872"/>
         <path class="afcr-stroke-anim main-anim"
            style="stroke-width:54.5; --duration: 2000; --time: 2400;"
            d="m 1624,955 c 27.9816,-48.25247 177.642,-252.5469 183.9445,-314.83363"/>
         <path class="afcr-stroke-anim main-anim"
            style="stroke-width:76.3; --duration: 2000; --time: 2500;"
            d="m 1817.5763,648.73528 c 8.0349,-32.87276 7.5056,-120.95153 -54.2998,-115.68768"/>
         <path class="afcr-stroke-anim main-anim"
            style="stroke-width:93.3; --duration: 2000; --time: 2600;"
            d="m 1786.8588,534.57273 c -177.4122,36.708 3.8878,265.58554 233.3452,124.27922"/>
         <path class="afcr-stroke-anim main-anim"
            style="stroke-width:146.8; --duration: 2000; --time: 2800;"
            d="m 1995,677 c -322.0845,510.8821 114.0719,469.807 222,70"/>
         <path class="afcr-stroke-anim main-anim"
            style="stroke-width:146.8; --duration: 2000; --time: 3400;"
            d="m 2146,968 328,-94"/>
      </mask>

      <mask id="rose-mask">
      <path class="afcr-stroke-anim main-anim"
         style="stroke-width:500; --duration: 2000; --time: 3400;"
      d="M 2218,796 2376,232" />
      </mask>
   </defs>

<path style="display:inline;fill:#00daea;fill-opacity:1"
   d="m 2284.3628,777.54735 c -8.175,18.19622 -40.6266,101.23175 -43.1487,105.54519 -1.5417,2.63671 -2.8031,5.01008 -2.8031,5.27417 0,0.26409 -4.1113,7.00798 -9.1363,14.98642 -9.0492,14.36808 -11.4859,20.14773 -4.4577,10.57344 5.8791,-8.009 23.6519,-24.29287 34.7843,-31.87027 19.6287,-13.36056 40.0427,-22.93789 61.2342,-28.7284 37.858,-10.34459 67.744,-9.35433 106.7584,3.53739 16.4109,5.42271 40.8171,17.05881 40.8171,19.46027 0,5.47921 -23.3101,32.00438 -41.912,47.69277 -20.3628,17.17356 -37.2342,26.15451 -63.1585,33.62053 -25.6237,7.37944 -44.8224,8.70014 -73.9295,5.0857 -23.7296,-2.94667 -45.9675,-3.18064 -58,-0.61024 -30.2981,6.47231 -52.8851,19.0903 -78.7656,44.00158 -23.0344,22.1717 -41.3506,36.0376 -70.2344,53.1692 -32.8747,19.4987 -74.8893,34.1184 -109,37.9285 -45.5756,5.0906 -78.8676,0.7685 -110.2376,-14.3115 -21.2353,-10.2081 -39.6833,-30.5006 -48.7047,-53.5746 -7.5168,-19.2253 -8.4578,-25.3099 -8.5111,-55.02896 -0.042,-23.18366 0.2075,-27.35402 2.2997,-38.5 4.1259,-21.98117 12.1322,-48.49537 20.7031,-68.56188 9.0703,-21.23572 38.4481,-77.11669 60.6062,-115.28212 2.6644,-4.5892 4.8438,-8.6392 4.843,-9 -7e-4,-0.3608 -14.0632,-0.67361 -31.25,-0.69514 -27.7836,-0.0348 -32.6347,-0.28591 -43.7486,-2.26464 -6.875,-1.22403 -14.3,-2.65819 -16.5,-3.18701 -5.9734,-1.43584 -7.2943,-1.23295 -8.0784,1.24079 -1.265,3.99077 -35.5742,72.81007 -43.2484,86.75 -36.5654,66.41964 -74.5302,120.34751 -116.0666,164.86881 -33.9292,36.36735 -77.0129,68.51055 -115.1066,85.87675 -20.829,9.4956 -45.2533,17.1041 -66.5,20.7158 -32.3325,5.4961 -78.5678,3.276 -103,-4.9459 -20.4408,-6.8787 -25.2121,-9.0496 -42.5,-19.3378 -16.8295,-10.0154 -34.2478,-26.744 -46.7195,-44.8696 -12.5341,-18.2163 -23.3879,-47.34669 -28.3446,-76.07404 -1.619,-9.38306 -2.0347,-16.34218 -2.0746,-34.73402 -0.083,-38.22425 4.1525,-62.61715 18.196,-104.79225 9.361,-28.11268 18.0494,-47.01987 32.1543,-69.97246 3.3195,-5.40183 5.8099,-10.04712 5.5341,-10.32287 -0.2757,-0.27574 -6.2938,3.6 -13.3735,8.61276 -28.8987,20.46165 -69.67,44.85775 -103.7379,62.07318 -17.7032,8.94587 -47.2818,22.00417 -57.3726,25.32874 -2.881,0.9492 -5.4371,2.0476 -5.6802,2.4409 -0.243,0.3933 1.3771,4.74201 3.6003,9.66381 9.5176,21.06989 21.6319,64.30247 27.4218,97.86008 1.3387,7.75946 3.8673,24.90811 5.6189,38.10811 3.1329,23.60901 3.1855,24.67608 3.2311,65.49996 0.031,27.438 -0.3845,45.2273 -1.2253,52.5 -0.6995,6.05 -1.7486,15.5 -2.3315,21 -3.03,28.591 -12.3667,72.5516 -22.0884,104 -5.8838,19.0332 -15.246,41.6547 -26.4873,64 -15.3331,30.4792 -34.1306,56.0114 -54.7158,74.3193 -13.9377,12.3958 -36.337,25.6061 -51.05919,30.1129 -16.29115,4.987 -37.89782,6.4036 -54.64563,3.5828 h 2e-4 c -21.56462,-3.6321 -36.75018,-12.0062 -50.69755,-27.9571 -6.68016,-7.6397 -10.01443,-13.3156 -15.71855,-26.7574 -8.29498,-19.5472 -11.5114,-38.2151 -11.53232,-66.9327 -0.0211,-28.9213 4.2693,-66.0931 11.46901,-99.3678 4.23169,-19.5575 17.19731,-71.9118 22.03969,-88.9948 3.02405,-10.6684 5.78875,-21.2135 6.14378,-23.4338 l 0.64551,-4.0368 -7.37504,7.2438 c -8.52558,8.3739 -21.71155,18.127 -30.43792,22.5137 -25.26165,12.6989 -44.15585,16.9875 -70.17466,15.9283 -7.56935,-0.3082 -16.29815,-1.2521 -19.39733,-2.0977 -8.22823,-2.2449 -23.51166,-9.0467 -29.32192,-13.0495 -8.44316,-5.8168 -23.23702,-20.3075 -26.91722,-26.3658 -4.43392,-7.299 -10.14808,-21.4584 -12.57338,-31.1561 -1.85604,-7.4216 -3.89581,-25.95761 -4.33134,-39.36043 l -0.22127,-6.80912 -6.93173,9.80912 c -3.81245,5.39502 -8.53432,12.05913 -10.49303,14.80913 -13.52202,18.9847 -44.46827,49.6161 -65.57524,64.9082 -15.14902,10.9755 -42.75447,22.652 -64.5,27.282 -10.7753,2.2942 -44.03805,2.5393 -57,0.42 -16.54585,-2.7053 -34.95825,-10.6408 -48.60955,-20.95 -16.40878,-12.3916 -27.1849,-25.8765 -36.38478,-45.5308 -11.10933,-23.7336 -15.32073,-45.04653 -15.4382,-78.1294 -0.12244,-34.47989 2.901,-58.72451 12.03409,-96.5 4.42276,-18.29305 15.31322,-52.30442 21.09162,-65.87005 18.22272,-42.78048 46.94396,-89.81317 73.66456,-120.62995 21.45879,-24.74837 39.39547,-40.70836 65.14226,-57.96336 29.45272,-19.73865 67.29653,-34.2526 98.04044,-37.6007 12.92201,-1.40725 36.51224,-0.6485 47.29751,1.52127 15.58209,3.13478 37.03288,12.2764 48.02875,20.46828 12.28893,9.1552 23.60151,22.87824 27.6945,33.5956 0.94079,2.4634 2.00286,4.47891 2.36017,4.47891 0.35731,0 2.3666,-5.0625 4.4651,-11.25 5.43605,-16.02843 7.50678,-20.69085 11.29568,-25.43313 10.80896,-13.52877 45.69839,-17.61728 95.63386,-11.20682 9.84143,1.26339 10.68399,1.60429 10.68399,4.32277 0,1.22037 -4.30196,14.33472 -9.55991,29.14301 -10.95743,30.86011 -21.12158,61.0846 -38.47955,114.42417 -6.71187,20.625 -15.3277,46.95 -19.1463,58.5 -27.5611,83.36332 -46.82038,159.72722 -46.78384,185.5 0.0129,9.0764 1.56152,18.81634 4.08186,25.6721 2.66254,7.2426 10.42342,15.2834 16.50376,17.0989 15.20454,4.5399 35.91907,-2.6743 55.85675,-19.4532 14.66829,-12.3444 35.97565,-40.56111 52.85837,-69.99881 15.36462,-26.79064 22.09342,-41.48902 27.61357,-60.31899 10.30774,-35.16114 30.24923,-99.07476 49.76512,-159.5 24.2363,-75.04067 31.3244,-95.91862 49.0581,-144.5 3.3127,-9.075 6.3452,-17.625 6.7388,-19 3.0655,-10.70643 27.9538,-73.11937 39.4782,-99 6.4901,-14.57521 21.9003,-44.33483 30.0336,-58 8.6523,-14.53709 26.5244,-40.80631 34.6822,-50.97723 9.673,-12.06011 34.4537,-36.79276 43.2993,-43.21529 37.4686,-27.205 76.4153,-34.47013 111.746,-20.84517 22.4362,8.65229 37.5957,25.18442 45.8834,50.03769 2.7686,8.3027 2.8345,9.01064 2.8372,30.5 0,18.9438 -0.3161,23.59756 -2.2924,33.5 -8.0477,40.32171 -23.8387,81.38497 -47.4925,123.5 -5.872,10.45508 -22.4703,37.20356 -30.7163,49.5 -11.0458,16.47154 -44.9291,60.85263 -56.9185,74.55307 -1.9508,2.2292 -8.0469,9.42046 -13.5469,15.98059 -22.8409,27.24344 -53.0961,59.02499 -89.3291,93.83568 -7.331,7.04321 -13.1138,13.02109 -12.8507,13.28418 0.7283,0.72834 21.8413,-8.10673 33.7832,-14.13717 17.9104,-9.04437 61.4256,-34.78237 80.3966,-47.55222 5.5,-3.70219 17.5997,-11.11238 26.8883,-16.46708 9.2886,-5.3547 21.3244,-12.61447 26.7462,-16.13283 5.4218,-3.51836 21.222,-13.17657 35.1116,-21.46269 13.8896,-8.28612 27.7289,-16.54245 30.7539,-18.34739 15.2928,-9.12487 45.6423,-24.8657 55.2275,-28.64383 2.8112,-1.10809 6.9476,-2.84478 9.1919,-3.85932 11.4641,-5.18234 39.6805,-13.6815 56.0806,-16.89223 17.5421,-3.4343 30.4062,-4.48329 47.2257,-3.85096 22.3925,0.84185 40.5717,5.35899 59.5972,14.80863 21.0884,10.47429 34.4623,24.6165 45.8775,48.51321 6.914,14.47378 9.0997,25.29939 9.1603,45.37036 0.052,17.28593 -1.3929,24.96283 -8.0888,42.97184 -7.6841,20.66692 -22.4757,36.20926 -44.0832,46.32062 -20.6539,9.66513 -55.2595,-0.30974 -68.2816,-19.68179 -3.7359,-5.55772 -4.9845,-9.61067 -2.9607,-9.61067 4.174,0 24.0513,-15.66034 30.4627,-24 4.3374,-5.64202 9.8654,-16.75872 12.2056,-24.54539 2.6757,-8.9028 2.3816,-24.11901 -0.6165,-31.90403 -4.4621,-11.58656 -14.1744,-18.99934 -29.0219,-22.15057 -15.7051,-3.33325 -29.4477,0.52992 -51.7102,14.53628 -27.8358,17.51273 -54.4489,47.61132 -78.7498,89.06371 -5.4979,9.37824 -7.983,14.41722 -17.9425,36.3813 -6.458,14.24221 -16.6327,44.63959 -20.9598,62.6187 -0.8604,3.575 -2.7771,13.7 -4.2594,22.5 -2.353,13.97001 -2.7019,18.85466 -2.75,38.5 -0.084,34.10702 3.5711,53.47419 14.0089,74.23869 4.9088,9.76541 8.4967,14.82859 15.5049,21.8805 11.4277,11.49891 25.0465,18.50451 45.8816,23.60171 9.1001,2.2263 12.6997,2.5704 27,2.5808 14.0173,0.01 18.5029,-0.3951 29.8121,-2.6931 33.4282,-6.7925 62.3329,-20.6696 97.0137,-46.57614 15.6864,-11.71765 44.6918,-40.36186 58.8191,-58.08658 32.9917,-41.39281 65.2206,-93.5338 94.2286,-152.44588 21.0348,-42.71955 23.9794,-48.99503 23.1345,-49.3039 -0.4573,-0.16714 -4.9607,-3.05194 -10.0075,-6.41068 -10.2217,-6.80256 -23.1207,-18.45661 -28.4227,-25.67939 -20.2533,-27.59059 -26.4225,-62.52244 -17.4143,-98.60603 3.917,-15.69002 9.7774,-27.49713 20.4154,-41.13144 12.5153,-16.0403 28.7416,-27.62792 47.9211,-34.22158 8.5093,-2.92539 11.7382,-3.50862 21.6606,-3.91249 10.475,-0.42637 12.6102,-0.20335 21,2.19352 23.6272,6.75001 37.5302,22.15455 42.9055,47.53918 2.0024,9.45598 2.1576,12.25761 1.6068,29 -0.697,21.18861 -2.1349,29.51366 -9.2464,53.53281 -6.3779,21.54173 -6.4412,20.64506 1.5735,22.29539 3.866,0.79606 16.8567,1.56079 32.058,1.88716 20.7006,0.44444 27.9226,0.22882 38,-1.13453 17.9354,-2.42645 37.6939,-6.78893 52.3624,-11.56113 7.0219,-2.28446 14.6997,-4.15356 17.0618,-4.15356 9.4249,0 16.0017,6.40159 26.9808,26.26207 13.5431,24.49841 14.8513,27.50443 14.9442,34.33923 0.079,5.80345 -0.2448,6.62674 -7.4944,19.06537 -4.1672,7.15 -12.9014,22.675 -19.4093,34.5 -6.5079,11.825 -16.4387,29.6 -22.0685,39.5 -11.3611,19.97834 -27.046,51.59388 -36.2164,73 -11.3419,26.47467 -14.4472,35.50195 -20.8119,60.5 -5.6542,22.20759 -7.2322,36.63742 -5.7012,52.13344 1.0108,10.23134 1.5067,11.99205 5.8497,20.77276 8.4327,17.0489 22.0858,27.6262 42.9448,33.2701 6.6095,1.7883 10.6939,2.161 23.5,2.1445 13.4614,-0.018 16.7803,-0.3606 25.2345,-2.6089 26.0386,-6.9248 50.0968,-20.553 77.5134,-43.90897 14.5687,-12.41096 17.7726,-15.53223 30.0794,-29.30293 21.9401,-24.55005 37.7378,-46.92418 52.9552,-75 3.2792,-6.05 7.5493,-13.925 9.4891,-17.5 4.6064,-8.48954 21.3364,-44.44122 25.8267,-55.5 l 18.3213,-49.48783 M 988.07009,1321.2646 c 18.10861,-8.8597 39.42211,-39.8836 55.62411,-80.9661 15.4698,-39.2263 28.9053,-94.3526 34.6084,-142 1.1191,-9.35 2.5939,-20.825 3.2772,-25.5 0.804,-5.5006 1.2581,-21.3798 1.2869,-45 0.036,-29.59334 -0.2979,-39.14913 -1.7652,-50.5 -3.9038,-30.19978 -7.3849,-46.98297 -17.1971,-82.91066 -6.8127,-24.94463 -7.9459,-28.19647 -8.9178,-25.58934 -1.6112,4.32204 -13.8037,44.07259 -16.5633,54 -3.7052,13.32965 -7.9853,27.80427 -19.5156,66 -4.5659,15.125 -10.2122,34.475 -12.5473,43 -2.3351,8.525 -5.7998,20.9 -7.69926,27.5 -1.89947,6.6 -4.07064,14.25 -4.82483,17 -0.7542,2.75 -3.41501,12.2 -5.91293,21 -9.7189,34.2391 -20.13807,74.7044 -25.9991,100.9737 -1.46932,6.5855 -2.84245,12.2503 -3.0514,12.5884 -0.20895,0.3381 -2.21459,9.5749 -4.45697,20.5263 -6.43932,31.4484 -8.50838,55.0813 -5.99936,68.5251 1.37395,7.3619 6.43962,17.355 10.12934,19.9824 7.86014,5.5969 19.75669,6.149 29.5242,1.3702 z M 574.70985,1016.6575 c 9.1499,-2.4689 23.98079,-9.7399 32.9815,-16.1695 10.63861,-7.59968 33.3664,-29.40322 44.39123,-42.58605 5.79716,-6.9319 13.93163,-17.77845 18.0766,-24.10345 4.14497,-6.325 8.46741,-12.84784 9.60541,-14.49519 4.10741,-5.9458 14.89077,-25.22334 19.78151,-35.36366 9.1544,-18.98045 27.96658,-63.86002 30.65859,-73.14115 0.55835,-1.925 3.56865,-11.6 6.68957,-21.5 10.44858,-33.14449 15.52758,-59.39836 15.49965,-80.11933 -0.0237,-17.5549 -2.41576,-28.22592 -9.65485,-43.06991 -8.28422,-16.98704 -27.52052,-27.25844 -51.11995,-27.29598 -23.59135,-0.0375 -44.61365,8.71376 -68.48357,28.50876 -17.7129,14.68906 -34.0186,33.55228 -52.53707,60.7774 -9.90841,14.56696 -16.3993,25.83521 -25.88697,44.94006 -12.34247,24.85341 -19.51372,43.73923 -28.72425,75.64663 -6.3561,22.01902 -7.90937,28.62212 -10.49426,44.61237 -2.66863,16.50821 -2.88458,18.7244 -3.65404,37.5 -1.58885,38.76967 8.7039,67.95761 28.33429,80.3497 12.0278,7.5928 29.02328,9.6952 44.53661,5.5093 z m 545.87395,-334.109 c 4.1233,-4.5375 15.3849,-17.7 25.0258,-29.25 9.6409,-11.55 20.1911,-24.15 23.445,-28 33.4437,-39.57033 76.9711,-105.00748 99.1117,-149 7.3538,-14.61179 9.6112,-19.7069 20.9547,-47.29621 7.0842,-17.22993 12.176,-37.34564 12.9581,-51.19208 0.9465,-16.75619 -1.8698,-26.11507 -9.4609,-31.43983 -11.2168,-7.86797 -31.2839,-2.29034 -44.4515,12.35527 -14.5128,16.14173 -37.2061,57.4939 -53.2717,97.07285 -1.2279,3.025 -5.2567,12.925 -8.9528,22 -13.212,32.43853 -28.6315,75.83747 -56.4921,159 -3.2245,9.625 -8.3106,24.475 -11.3024,33 -6.168,17.5751 -7.1331,21 -5.9177,21 0.4712,0 4.2304,-3.7125 8.3538,-8.25 z m 664.5212,-55.81929 c 2.3206,-9.11591 2.6645,-12.51056 2.7289,-26.93071 0.066,-14.84109 -0.1408,-16.95889 -2.0593,-21.06419 -4.1378,-8.85414 -11.8858,-12.30261 -19.1737,-8.53385 -6.0903,3.14941 -10.7253,16.71733 -9.9226,29.04628 0.6499,9.98211 3.4723,17.67657 9.3541,25.501 5.0278,6.68852 14.2686,14.56098 15.5674,13.26222 0.4675,-0.46751 2.0449,-5.54385 3.5052,-11.28075 z"
    mask="url(#afcr-mask)"/>
<path style="fill:#e838bf;fill-opacity:1"
   d="m 2122.9724,701.28488 c -14.639,-18.93211 -24.4828,-42.16035 -30.2502,-66.36082 -4.829,-20.26247 -5.4173,-26.17975 -5.0778,-51.07173 0.7243,-53.11058 0.5707,-59.23577 -1.8178,-72.5 -4.3535,-24.17575 -8.864,-38.84073 -17.5671,-57.1157 -5.5023,-11.55399 -5.9345,-16.32111 -1.9952,-22.00561 2.6216,-3.7829 8.4316,-6.91492 12.6862,-6.8388 1.2264,0.0219 10.7043,2.86647 21.0622,6.32118 17.2529,5.75447 18.7932,6.10757 18.3659,4.21011 -0.2566,-1.13915 -1.3061,-4.99618 -2.3322,-8.57118 -2.6014,-9.06345 -2.5927,-34.56475 0.015,-44 4.2126,-15.24179 12.3787,-27.85367 25.5759,-39.5 22.5571,-19.90637 61.0835,-28.22086 99.8228,-21.54301 l 13.28,2.28919 6.1818,-2.77424 c 8.7255,-3.91574 27.6267,-9.02395 38.788,-10.48275 19.9894,-2.61263 44.4036,1.58336 63.7041,10.9486 11.5195,5.58967 18.8287,10.32831 30.6417,19.86543 7.7386,6.24775 8.4883,6.61213 16.1202,7.83441 26.0375,4.17004 55.6861,18.78125 72.8272,35.89013 13.7261,13.70029 21.5307,29.89034 24.168,50.13438 1.7293,13.2743 -5.646,37.81636 -16.2542,54.08786 l -1.4668,2.25 h 19.4671 c 18.5742,0 19.623,0.10412 22.865,2.26993 3.9312,2.62624 6.8941,7.89962 6.8963,12.2743 0,3.74056 -3.1884,8.91147 -18.0148,29.19812 -6.334,8.66671 -13.5594,18.90765 -16.0566,22.75765 -9.3642,14.43755 -19.3637,39.42294 -25.4501,63.59168 -3.5473,14.08607 -12.3605,40.44584 -16.5193,49.40832 -9.6283,20.74963 -20.82,36.48698 -38.4023,54 -16.2196,16.15574 -24.677,22.46404 -44.0909,32.88722 -27.0725,14.53495 -56.444,25.54901 -86.9106,22.06472 -61.9298,-7.08256 -119.7939,-14.25155 -170.2615,-79.51939 z m 153.0627,44.31745 c 3.2093,-6.27644 10.6457,-30.4509 12.2275,-39.75 3.6047,-21.19029 -0.7436,-55.67773 -10.2104,-80.98219 -7.3846,-19.73875 -21.7296,-45.3232 -34.7729,-62.01781 -12.9623,-16.59099 -46.1076,-46.76924 -63.9944,-58.26598 -14.2586,-9.16467 -30.326,-18.61465 -39.6046,-23.2933 -12.3811,-6.24301 -29.73,-13.87744 -30.2818,-13.3256 -0.2385,0.23843 0.4192,3.01007 1.4614,6.15919 8.0436,24.30433 11.7845,57.06805 9.6168,84.22569 -3.3733,42.2616 2.0429,78.18488 15.5296,103 14.1097,25.96165 30.3537,43.8871 53.674,59.23001 24.7101,16.25736 55.9276,27.15177 79.2243,27.64804 5.2922,0.11274 5.8305,-0.0856 7.1305,-2.62805 z m 56.3519,-1.7228 c 25.1527,-6.73552 51.2211,-22.08315 69.5514,-40.94801 7.4953,-7.71385 20.1216,-23.67529 23.916,-30.23304 7.6226,-13.17409 13.5235,-28.16817 19.8136,-50.34615 4.0154,-14.15759 14.2298,-44.50586 18.1729,-53.99387 4.8994,-11.78901 13.2645,-27.44005 19.237,-35.99245 2.4914,-3.56747 4.1673,-6.84873 3.7244,-7.29168 -0.7554,-0.7554 -21.9086,1.25691 -34.122,3.24604 -3.025,0.49266 -7.8745,1.15543 -10.7765,1.47281 -10.8758,1.18942 -29.9756,5.67013 -48.2235,11.31297 -30.2103,9.34198 -64.0918,28.8891 -86.2717,49.77239 l -5.7717,5.43427 1.6403,3.76976 c 3.8675,8.88846 11.4449,32.65515 13.8067,43.30503 3.6981,16.67525 4.9093,30.19611 4.3415,48.46473 -0.5326,17.13597 -3.509,34.57506 -8.3105,48.69207 l -2.4085,7.08144 6.2369,-0.64044 c 3.4303,-0.35225 10.38,-1.74989 15.4437,-3.10587 z m -29.7067,-190.36898 c 16.9069,-13.03382 26.0637,-18.60684 53,-32.25703 13.6353,-6.90983 20.1781,-13.2331 25.8063,-24.94076 4.0332,-8.3897 9.1937,-25.84848 9.1937,-31.10386 v -2.73378 l -10.25,4.88262 c -18.5559,8.83913 -33.8755,11.98651 -58.369,11.99177 -24.2247,0.005 -45.945,-5.52298 -65.881,-16.76778 -9.1642,-5.16899 -25.4861,-17.1249 -28.3514,-20.76763 -1.0651,-1.35398 -2.3761,-2.46177 -2.9135,-2.46177 -1.6903,0 -3.5937,27.80208 -2.9437,42.99913 l 0.6048,14.14201 17.8902,17.37053 c 9.8397,9.55379 20.4579,20.50896 23.5962,24.34483 5.6986,6.96548 7.6766,9.67945 16.3278,22.40342 l 4.5962,6.75993 3.0967,-2.49806 c 1.7032,-1.37393 8.2717,-6.48754 14.5967,-11.36357 z m 125,-57.90161 c 13.2433,-5.43309 21.7179,-10.88885 30.5634,-19.67612 9.0176,-8.95823 13.2597,-16.30737 16.0827,-27.86216 1.5103,-6.1816 1.522,-7.4646 0.1325,-14.5 -1.8205,-9.21765 -4.4557,-15.11464 -9.5229,-21.31052 -7.8745,-9.62828 -24.8195,-20.44392 -39.7557,-25.3752 -13.1667,-4.34705 -13.7561,-4.488 -24.8735,-5.94812 -11.8143,-1.55164 -13.2174,-2.21884 -20.9698,-9.97129 -16.2021,-16.20203 -39.5931,-27.21781 -60.1567,-28.33027 -33.1088,-1.79113 -64.391,12.54754 -75.2262,34.48102 -3.5711,7.22892 -3.7734,8.15211 -3.7662,17.18764 0.01,7.85972 0.4025,10.34425 2.2403,14.04841 4.0861,8.23555 10.9736,15.68606 20.2149,21.86748 16.0393,10.72849 33.436,15.59834 55.5372,15.54645 10.4472,-0.0245 12.5566,-0.31796 16.3016,-2.26771 6.3124,-3.28643 10.1984,-9.86953 10.1984,-17.2769 0,-3.15652 -0.4199,-6.84343 -0.933,-8.19313 -2.8381,-7.46467 -13.2741,-14.12253 -24.9757,-15.93378 -5.8321,-0.90272 -8.3996,-0.80188 -14.8444,0.58304 -10.2756,2.20812 -13.6941,2.11325 -18.3607,-0.50954 -4.1312,-2.32188 -7.9038,-8.50134 -7.8643,-12.88164 0.063,-6.94291 6.7768,-14.99517 14.1613,-16.98361 30.6178,-8.24452 66.1412,5.51147 78.2497,30.30117 5.0941,10.42926 6.8092,24.74171 3.8796,32.37602 -0.9937,2.58963 1.4638,1.35538 15.1875,-7.62785 12.8003,-8.37879 14.1031,-8.99975 18.8746,-8.99627 6.1536,0.004 10.7547,2.49102 13.3268,7.20204 1.5363,2.81381 1.7872,5.70053 1.7205,19.79423 -0.096,20.32441 -2.059,33.29936 -7.9973,52.86385 -0.8567,2.82264 -0.4594,2.74026 12.5754,-2.60724 z m -236.5916,-36.50661 c 0.8106,-15.55501 2.597,-28.77322 6.5885,-48.75 4.8034,-24.04008 10.8969,-40.20209 19.6295,-52.0645 2.4819,-3.37143 4.2662,-6.37625 3.965,-6.67737 -1.2356,-1.23566 -10.8368,-1.41328 -18.8381,-0.3485 -10.4224,1.38696 -20.5962,4.75307 -30.4815,10.08514 -17.595,9.49066 -23.4323,17.83495 -26.4292,37.77996 -2.6814,17.84537 6.6672,39.76111 24.4727,57.37077 5.0251,4.9699 18.5598,15.79829 19.7937,15.83592 0.3349,0.0102 0.9197,-5.94392 1.2994,-13.23142 z"
     mask="url(#rose-mask)" />
   
   <style>
      .afcr-stroke{
         fill: cyan; 
      }

      .afcr-stroke-anim{
         fill: none;
         fill-opacity:1;
         stroke: white;
         stroke-opacity: 1;
         stroke-width:125;
         stroke-miterlimit:0
      }

      .main-anim {
         stroke-dasharray: 13818 13820;
         stroke-dashoffset: 13819;
         animation:drawAnim calc((var(--duration) * 1ms)) linear forwards; 
         animation-delay: calc((var(--time) * 1ms));
      }

      .main-anim:first-child, 
      .main-anim:nth-child(12) {
         animation-timing-function: ease-in-out;
      }
      
      @keyframes drawAnim{
         100%{stroke-dashoffset:0;
      }
   </style>
</svg>
